<svg width="110.000000" height="112.000000" viewBox="0 0 110 112" fill="none" xmlns="http://www.w3.org/2000/svg" xmlns:xlink="http://www.w3.org/1999/xlink">
	<desc>
			Created with Pixso.
	</desc>
	<defs/>
	<rect id="Rectangle 3" x="20.000000" y="20.000000" rx="12.000000" width="80.000000" height="80.000000" fill="#FFFFFF" fill-opacity="1.000000"/>
	<circle id="Oval 1" cx="30.000000" cy="30.000000" r="30.000000" fill="#6043BD" fill-opacity="1.000000"/>
	<circle id="Oval 2" cx="90.500000" cy="92.500000" r="19.500000" fill="#000000" fill-opacity="1.000000"/>
	<path id="Flow" d="M48.01 47.74L43.33 47.74L43.33 70L48.01 70L48.01 47.74ZM29.35 58.44L29.35 52.89L40.36 52.89L40.36 49L24.49 49L24.49 70L29.35 70L29.35 62.35L39.07 62.35L39.07 58.44L29.35 58.44ZM55.67 69.28Q57.62 70.24 60.03 70.24Q62.54 70.24 64.52 69.21Q64.56 69.19 64.59 69.17Q65.84 68.51 66.75 67.54Q67.31 66.94 67.74 66.22Q67.99 65.81 68.18 65.38Q68.89 63.81 68.89 61.92Q68.89 60.04 68.18 58.47Q67.99 58.04 67.74 57.63Q67.3 56.9 66.73 56.29Q65.83 55.33 64.59 54.68Q64.56 54.66 64.52 54.64Q62.54 53.62 60.03 53.62Q57.62 53.62 55.67 54.57Q55.56 54.62 55.45 54.68Q54.21 55.33 53.3 56.3Q52.73 56.91 52.29 57.63Q52.06 58.02 51.87 58.43Q51.15 60.02 51.15 61.92Q51.15 63.83 51.87 65.41Q52.06 65.83 52.29 66.22Q52.72 66.93 53.28 67.53Q54.2 68.51 55.45 69.17Q55.56 69.23 55.67 69.28ZM91.62 70L97.48 53.85L93.34 53.85L89.4 64.77L85.57 53.85L81.6 53.85L77.64 64.77L73.83 53.85L69.42 53.85L75.25 70L79.74 70L83.49 59.98L87.13 70L91.62 70ZM62.02 65.93Q61.15 66.39 60.03 66.39Q58.95 66.39 58.09 65.95Q57.53 65.66 57.07 65.18Q56.86 64.97 56.68 64.72Q55.89 63.6 55.89 61.92Q55.89 60.26 56.67 59.15Q56.85 58.9 57.07 58.67Q57.54 58.18 58.11 57.89Q58.96 57.46 60.03 57.46Q61.14 57.46 62 57.91Q62.54 58.2 62.99 58.67Q63.19 58.88 63.35 59.11Q64.15 60.23 64.15 61.92Q64.15 63.63 63.34 64.76Q63.18 64.98 62.99 65.18Q62.55 65.64 62.02 65.93Z" fill="#000000" fill-opacity="1.000000" fill-rule="evenodd"/>
</svg>
